<?xml version="1.0" encoding="utf-8"?>
<!-- Generator: Adobe Illustrator 22.0.1, SVG Export Plug-In . SVG Version: 6.00 Build 0)  -->
<svg version="1.1" id="Capa_1" xmlns="http://www.w3.org/2000/svg" xmlns:xlink="http://www.w3.org/1999/xlink" x="0px" y="0px"
	 viewBox="0 0 30 30" style="enable-background:new 0 0 30 30;" xml:space="preserve">
<style type="text/css">
	.st0{fill:#FFFFFF;}
</style>
<g>
	<path class="st0" d="M2.4,7.3V0h2v7.3H2.4z"/>
	<path class="st0" d="M16.2,7.3l-2.6-3.9v3.9h-2V0h2l2.6,3.9V0h2v7.3H16.2z"/>
	<path class="st0" d="M14.8,18.5h-3.4v-7.3h3.4c0.5,0,1,0.1,1.5,0.3c0.5,0.2,0.9,0.5,1.2,0.8c0.3,0.3,0.6,0.7,0.8,1.2
		c0.2,0.4,0.3,0.9,0.3,1.4c0,0.5-0.1,1-0.3,1.4c-0.2,0.4-0.5,0.8-0.8,1.2c-0.3,0.3-0.7,0.6-1.2,0.8C15.8,18.4,15.3,18.5,14.8,18.5z
		 M14.6,13h-1.2v3.7h1.2c0.3,0,0.5,0,0.8-0.1c0.2-0.1,0.4-0.2,0.6-0.4c0.2-0.2,0.3-0.4,0.4-0.6c0.1-0.2,0.2-0.5,0.2-0.7
		c0-0.3-0.1-0.5-0.2-0.7c-0.1-0.2-0.2-0.4-0.4-0.6c-0.2-0.2-0.4-0.3-0.6-0.4C15.1,13.1,14.9,13,14.6,13z"/>
	<path class="st0" d="M5.9,29.8l-1.3-1.9H4.5l-1.3,1.9H0.8l2.5-3.7l-2.5-3.6h2.4l1.2,1.8h0.1l1.2-1.8h2.4l-2.5,3.6l2.5,3.7H5.9z"/>
	<path class="st0" d="M23.3,18.5v-7.3h6V13h-4v1h4v1.7h-4v1h4v1.7H23.3z"/>
</g>
</svg>
